<svg xmlns="http://www.w3.org/2000/svg" viewBox="0 0 34 24">
    <path d="M25 22H8s-6.038-.62-6-6c.021-3.04 2.688-5.82 6-6 0-4.14 2.65-8 7-8 3.433 0 5.723 2.1 6.538 5.01C26.493 6.8 29.844 10.72 30 14c.135 2.83-2.32 6.48-5 8ZM23.067 5.03C21.599 2.05 18.543 0 15 0c-4.749 0-8.63 3.68-8.967 8.34C2.542 9.34 0 12.39 0 16c0 4.26 3.54 7.73 8 7.98L25 24c3.437-1.49 7-5.65 7-9.5 0-5.06-3.951-9.18-8.933-9.47Zm-6.29 1.25a.964.964 0 0 0-.761-.28.966.966 0 0 0-.762.28l-5.941 5.91a1.004 1.004 0 1 0 1.423 1.42L15 9.37v9.62a1.001 1.001 0 0 0 2 0V9.34l4.295 4.27a1.004 1.004 0 1 0 1.423-1.42l-5.941-5.91Z"
          fill="currentColor" fill-rule="evenodd"/>
</svg>